<svg xmlns="http://www.w3.org/2000/svg" width="170.028" height="87.291" viewBox="0 0 170.028 87.291">
  <g id="Group_453" data-name="Group 453" transform="translate(-1890.24 -601.294)" style="mix-blend-mode: difference;isolation: isolate">
    <path id="Path_649" data-name="Path 649" d="M2376.222,907.538c-3.827,11.207-7.406,21.178-.465,21.9,4.988.52,10.218-4.922,16.274-22.922,0,0-7.7,19.774.289,18.951,4.436-.457,8.592-11.505,10.106-15.206" transform="translate(-418.288 -264.794)" fill="none" stroke="#fff" stroke-width="1.5"/>
    <path id="Path_650" data-name="Path 650" d="M2609.271,831.9c-.336-6.9-9.363-7.178-13.243,5.093-3.318,10.5,4.517,12.733,9.372,10.555,6.424-2.882,10.438-10.536,14.308-17.77s.7-8.518-.673-8.58c-3.25-.145-5.721,5.381-1.049,7.672,4.707,2.308,15.882-6.088,18.556-8.986" transform="translate(-612.65 -189.426)" fill="none" stroke="#fff" stroke-width="1.5"/>
    <path id="Path_651" data-name="Path 651" d="M2024.116,630.1c-1.348,2.875-13.834,18.81-9.064,23.006,8.284,7.288,35.793-19.048,29.34-24.085-6.927-5.407-20.7,18.94-11.861,23.138,11.26,5.348,38.283-21.806,21.781-40.07-17.325-19.175-68.812-6.856-82.235,5.463-3.64,3.341-4.308,6.861-1.879,8.668,1.949,1.451,5.8.158,8.11-3.57,2.7-4.357,3.5-10.92-2.391-15.272-8.866-6.547-23.33.56-30.281,26.749-6.858,25.838-14.569,52.734-35.721,53.681-27.672,1.239-23.545-42.063,3.08-37.586" transform="translate(0)" fill="none" stroke="#fff" stroke-width="1.5"/>
  </g>
</svg>
